<svg xmlns="http://www.w3.org/2000/svg" xmlns:xlink="http://www.w3.org/1999/xlink" version="1.1" x="0px" y="0px" viewBox="-10 0 280 100" style="enable-background:new 0 0 100 100;" xml:space="preserve"><path d="M32.7,55.3c-8.2,0-15-6.7-15-15c0-8.2,6.7-15,15-15s15,6.7,15,15C47.7,48.6,40.9,55.3,32.7,55.3z M32.7,28.4  c-6.6,0-12,5.4-12,12c0,6.6,5.4,12,12,12s12-5.4,12-12C44.7,33.8,39.3,28.4,32.7,28.4z"/><path d="M67.3,55.3c-8.2,0-15-6.7-15-15c0-8.2,6.7-15,15-15s15,6.7,15,15C82.3,48.6,75.6,55.3,67.3,55.3z M67.3,28.4  c-6.6,0-12,5.4-12,12c0,6.6,5.4,12,12,12s12-5.4,12-12C79.3,33.8,73.9,28.4,67.3,28.4z"/><path d="M56.3,34.2H43.7c-0.8,0-1.5-0.7-1.5-1.5s0.7-1.5,1.5-1.5h12.5c0.8,0,1.5,0.7,1.5,1.5S57.1,34.2,56.3,34.2z"/><path d="M32.7,45.7c-2.9,0-5.3-2.4-5.3-5.3s2.4-5.3,5.3-5.3s5.3,2.4,5.3,5.3S35.6,45.7,32.7,45.7z M32.7,38c-1.3,0-2.3,1.1-2.3,2.3  s1.1,2.3,2.3,2.3s2.3-1.1,2.3-2.3S34,38,32.7,38z"/><path d="M67.3,45.7c-2.9,0-5.3-2.4-5.3-5.3s2.4-5.3,5.3-5.3s5.3,2.4,5.3,5.3S70.2,45.7,67.3,45.7z M67.3,38C66,38,65,39.1,65,40.4  s1.1,2.3,2.3,2.3s2.3-1.1,2.3-2.3S68.6,38,67.3,38z"/><path d="M19.2,40c-0.3,0-0.5-0.1-0.7-0.2L5,32.1c-0.7-0.4-1-1.3-0.6-2c0.4-0.7,1.3-1,2-0.6L20,37.2c0.7,0.4,1,1.3,0.6,2  C20.3,39.7,19.8,40,19.2,40z"/><path d="M80.8,40c-0.5,0-1-0.3-1.3-0.8c-0.4-0.7-0.2-1.6,0.6-2l13.5-7.7c0.7-0.4,1.6-0.2,2,0.6c0.4,0.7,0.2,1.6-0.6,2l-13.5,7.7  C81.3,39.9,81,40,80.8,40z"/><path d="M75.2,97H23.8C12.3,97,3,87.7,3,76.2V50.5C3,24.9,23.9,4,49.5,4S96,24.9,96,50.5v25.7C96,87.7,86.7,97,75.2,97z M49.5,9  C26.6,9,8,27.6,8,50.5v25.7C8,84.9,15.1,92,23.8,92h51.4C83.9,92,91,84.9,91,76.2V50.5C91,27.6,72.4,9,49.5,9z"/><path d="M49.8,73.7c-4.6,0-9.2-3.1-9.2-9.1c0-0.8,0.7-1.5,1.5-1.5s1.5,0.7,1.5,1.5c0,4.2,3.1,6.1,6.2,6.1c3.1,0,6.2-1.9,6.2-6.1  c0-0.8,0.7-1.5,1.5-1.5s1.5,0.7,1.5,1.5C59,70.6,54.4,73.7,49.8,73.7z"/><text x="120" y="70" fill="#000000" font-size="50px" font-weight="bold" font-family="'Helvetica Neue', Helvetica, Arial-Unicode, Arial, Sans-serif">Geeks</text><text x="0" y="120" fill="#000000" font-size="5px" font-weight="bold" font-family="'Helvetica Neue', Helvetica, Arial-Unicode, Arial, Sans-serif"></text></svg>
